<svg xmlns="http://www.w3.org/2000/svg" viewBox="0 0 140 47"><path d="M6.153,46.361a4.022,4.022,0,0,1-2.077.491A3.537,3.537,0,0,1,1.459,45.84a3.559,3.559,0,0,1-.987-2.617,3.9,3.9,0,0,1,1.061-2.888A3.9,3.9,0,0,1,4.4,39.252a4.27,4.27,0,0,1,1.753.346v1.53a2.722,2.722,0,0,0-1.629-.568,2.256,2.256,0,0,0-1.7.716,2.585,2.585,0,0,0-.666,1.851A2.4,2.4,0,0,0,2.776,44.9a2.214,2.214,0,0,0,1.679.666,2.643,2.643,0,0,0,1.679-.642V46.36Z" style="fill:#e42313"/><path d="M11.013,46.855a3.483,3.483,0,0,1-3.7-3.251,3.6,3.6,0,0,1,0-.476A3.846,3.846,0,0,1,8.35,40.265a3.8,3.8,0,0,1,2.814-1.037A3.533,3.533,0,0,1,13.83,40.24a3.869,3.869,0,0,1,.963,2.789,3.778,3.778,0,0,1-1.037,2.789A3.626,3.626,0,0,1,11.013,46.855Zm.074-6.294a1.9,1.9,0,0,0-1.53.666,2.82,2.82,0,0,0-.568,1.851,2.723,2.723,0,0,0,.568,1.8,2.09,2.09,0,0,0,2.953.108c.028-.027.056-.055.083-.083a2.711,2.711,0,0,0,.518-1.851,2.947,2.947,0,0,0-.518-1.851,1.766,1.766,0,0,0-1.5-.64Z" style="fill:#e42313"/><path d="M18.15,46.682H16.5V35.92H18.15Z" style="fill:#e42313"/><path d="M21.951,46.682H20.3V35.92h1.654Z" style="fill:#e42313"/><path d="M29.677,46.682h-1.6V45.547h-.025a2.41,2.41,0,0,1-2.221,1.3,2.282,2.282,0,0,1-1.679-.592,2.1,2.1,0,0,1-.617-1.53c0-1.382.79-2.172,2.37-2.394l2.172-.3q0-1.554-1.481-1.555a3.526,3.526,0,0,0-2.345.889V39.938a5.235,5.235,0,0,1,2.666-.691A2.432,2.432,0,0,1,29.676,41.3a2.361,2.361,0,0,1,.006.661Zm-1.6-3.579-1.53.222a2.147,2.147,0,0,0-1.061.346,1.009,1.009,0,0,0-.37.889.992.992,0,0,0,.321.765,1.288,1.288,0,0,0,.889.3,1.711,1.711,0,0,0,1.259-.518,1.885,1.885,0,0,0,.494-1.333Z" style="fill:#e42313"/><path d="M33.355,45.62H33.33v1.061H31.677V35.92h1.654v4.764h.025a2.713,2.713,0,0,1,2.468-1.456,2.561,2.561,0,0,1,2.148.987,4.075,4.075,0,0,1,.79,2.617,4.593,4.593,0,0,1-.864,2.913A2.875,2.875,0,0,1,35.5,46.831,2.311,2.311,0,0,1,33.355,45.62Zm-.025-2.888v.913A1.944,1.944,0,0,0,33.849,45a1.658,1.658,0,0,0,1.283.543,1.68,1.68,0,0,0,1.433-.716,3.33,3.33,0,0,0,.518-2,2.62,2.62,0,0,0-.494-1.679,1.628,1.628,0,0,0-1.308-.617,1.716,1.716,0,0,0-1.407.617,2.362,2.362,0,0,0-.543,1.582Z" style="fill:#e42313"/><path d="M43.671,46.855a3.666,3.666,0,0,1-2.691-1.012,3.732,3.732,0,0,1-1.009-2.715,3.846,3.846,0,0,1,1.037-2.863,3.8,3.8,0,0,1,2.814-1.037,3.533,3.533,0,0,1,2.666,1.012,3.869,3.869,0,0,1,.963,2.789,3.778,3.778,0,0,1-1.037,2.789A3.626,3.626,0,0,1,43.671,46.855Zm.1-6.294a1.9,1.9,0,0,0-1.53.666,2.82,2.82,0,0,0-.568,1.851,2.723,2.723,0,0,0,.568,1.8,2.09,2.09,0,0,0,2.953.108c.028-.027.056-.055.083-.083a2.711,2.711,0,0,0,.518-1.851,2.947,2.947,0,0,0-.518-1.851A1.829,1.829,0,0,0,43.771,40.561Z" style="fill:#e42313"/><path d="M53.374,40.977a1.442,1.442,0,0,0-.864-.247,1.511,1.511,0,0,0-1.234.666,3.013,3.013,0,0,0-.494,1.8v3.48H49.153V39.394h1.654V40.9h.025a2.809,2.809,0,0,1,.741-1.21,1.651,1.651,0,0,1,1.111-.42,1.751,1.751,0,0,1,.691.123Z" style="fill:#e42313"/><path d="M60.113,46.682h-1.58V45.547h-.025a2.412,2.412,0,0,1-2.217,1.3,2.282,2.282,0,0,1-1.679-.592A2.1,2.1,0,0,1,54,44.73c0-1.382.79-2.172,2.37-2.394l2.172-.3q0-1.554-1.481-1.555a3.526,3.526,0,0,0-2.345.889V39.938a5.235,5.235,0,0,1,2.666-.691A2.432,2.432,0,0,1,60.136,41.3a2.361,2.361,0,0,1,.006.661v4.715ZM58.533,43.1,57,43.325a2.147,2.147,0,0,0-1.061.346,1.009,1.009,0,0,0-.37.889.992.992,0,0,0,.321.765,1.288,1.288,0,0,0,.889.3,1.711,1.711,0,0,0,1.259-.518,1.885,1.885,0,0,0,.494-1.333v-.666Z" style="fill:#e42313"/><path d="M65.963,46.608a2.692,2.692,0,0,1-1.284.247c-1.407,0-2.123-.666-2.123-2.024V40.709H61.347V39.425h1.21v-1.7l1.654-.469V39.4h1.753v1.284H64.211v3.629a1.311,1.311,0,0,0,.247.913.934.934,0,0,0,.79.272,1.053,1.053,0,0,0,.716-.247Z" style="fill:#e42313"/><path d="M68.21,37.87a1.015,1.015,0,0,1-.692-.272.9.9,0,0,1-.061-1.271c.019-.022.04-.042.061-.062a1.015,1.015,0,0,1,.692-.272,1.083,1.083,0,0,1,.716.272.843.843,0,0,1,.3.666.918.918,0,0,1-.3.666A.931.931,0,0,1,68.21,37.87Zm.838,8.812H67.4V39.4h1.653Z" style="fill:#e42313"/><path d="M74.427,46.855a3.483,3.483,0,0,1-3.7-3.251,3.6,3.6,0,0,1,0-.476,3.846,3.846,0,0,1,1.037-2.863,3.8,3.8,0,0,1,2.814-1.037,3.533,3.533,0,0,1,2.666,1.012,3.869,3.869,0,0,1,.963,2.789,3.778,3.778,0,0,1-1.037,2.789A3.666,3.666,0,0,1,74.427,46.855Zm.074-6.294a1.9,1.9,0,0,0-1.53.666,2.812,2.812,0,0,0-.567,1.851,2.717,2.717,0,0,0,.567,1.8,2.09,2.09,0,0,0,2.953.108l.084-.083a2.721,2.721,0,0,0,.518-1.851,2.959,2.959,0,0,0-.518-1.851,1.829,1.829,0,0,0-1.5-.64Z" style="fill:#e42313"/><path d="M86.377,46.683H84.723v-4.1c0-1.358-.469-2.049-1.432-2.049a1.584,1.584,0,0,0-1.234.568,2.149,2.149,0,0,0-.494,1.432v4.147H79.91V39.4h1.654v1.21h.025a2.614,2.614,0,0,1,2.37-1.382,2.133,2.133,0,0,1,1.8.765,3.443,3.443,0,0,1,.617,2.222Z" style="fill:#e42313"/><path d="M102.174,39.4l-2.148,7.282H98.3l-1.333-4.937a4.487,4.487,0,0,1-.1-.642H96.84a2.239,2.239,0,0,1-.123.617l-1.432,4.937h-1.7l-2.148-7.282h1.7l1.334,5.233a2.108,2.108,0,0,1,.074.617h.049a3.207,3.207,0,0,1,.123-.642L96.2,39.35h1.555l1.309,5.258a3.691,3.691,0,0,1,.1.617h.049a3.078,3.078,0,0,1,.1-.617l1.284-5.258h1.58Z" style="fill:#e42313"/><path d="M106.541,46.855a3.483,3.483,0,0,1-3.7-3.251,3.6,3.6,0,0,1,0-.476,3.846,3.846,0,0,1,1.037-2.863,3.8,3.8,0,0,1,2.814-1.037,3.533,3.533,0,0,1,2.666,1.012,3.869,3.869,0,0,1,.963,2.789,3.778,3.778,0,0,1-1.037,2.789A3.589,3.589,0,0,1,106.541,46.855Zm.1-6.294a1.9,1.9,0,0,0-1.53.666,2.812,2.812,0,0,0-.567,1.851,2.717,2.717,0,0,0,.567,1.8,2.09,2.09,0,0,0,2.953.108l.084-.083a2.721,2.721,0,0,0,.518-1.851,2.959,2.959,0,0,0-.518-1.851,1.832,1.832,0,0,0-1.507-.64Z" style="fill:#e42313"/><path d="M116.245,40.977a1.442,1.442,0,0,0-.864-.247,1.511,1.511,0,0,0-1.234.666,3.013,3.013,0,0,0-.494,1.8v3.48H112V39.394h1.654V40.9h.025a2.809,2.809,0,0,1,.741-1.21,1.651,1.651,0,0,1,1.111-.42,1.751,1.751,0,0,1,.691.123v1.584Z" style="fill:#e42313"/><path d="M124.019,46.682h-2.1l-2.839-3.505h-.025v3.505H117.4V35.92h1.654v6.837h.025l2.666-3.332h1.975l-2.987,3.48Z" style="fill:#e42313"/><path d="M124.588,46.46V44.93a3.258,3.258,0,0,0,2.049.691q1.482,0,1.481-.889a.755.755,0,0,0-.123-.42,1.084,1.084,0,0,0-.346-.321,2.566,2.566,0,0,0-.518-.247c-.2-.074-.42-.148-.666-.247-.3-.123-.567-.246-.815-.37a1.87,1.87,0,0,1-.592-.444,2.814,2.814,0,0,1-.37-.568,2.33,2.33,0,0,1-.122-.741,1.712,1.712,0,0,1,.247-.938,2.138,2.138,0,0,1,.666-.666,3.445,3.445,0,0,1,.963-.42,4.043,4.043,0,0,1,1.111-.148,5.1,5.1,0,0,1,1.8.3v1.432a3.108,3.108,0,0,0-1.752-.518,2.134,2.134,0,0,0-.568.074,1.372,1.372,0,0,0-.421.173.725.725,0,0,0-.272.272.57.57,0,0,0-.1.346.677.677,0,0,0,.1.4,1.671,1.671,0,0,0,.3.3,4.178,4.178,0,0,0,.469.222c.173.074.395.148.617.222a5.264,5.264,0,0,1,.839.395,2.456,2.456,0,0,1,.642.444,1.558,1.558,0,0,1,.4.592,1.95,1.95,0,0,1,.148.79,1.743,1.743,0,0,1-.247.963,2.289,2.289,0,0,1-.691.691,3.168,3.168,0,0,1-.987.395,4.587,4.587,0,0,1-1.185.123A4.227,4.227,0,0,1,124.588,46.46Z" style="fill:#e42313"/><path d="M131.994,46.83a1.024,1.024,0,0,1-.716-.272.915.915,0,0,1-.3-.666.931.931,0,0,1,.3-.691.988.988,0,0,1,.716-.3,1.006,1.006,0,0,1,.741.3.938.938,0,0,1,.3.691.847.847,0,0,1-.3.666A.985.985,0,0,1,131.994,46.83Z" style="fill:#e42313"/><rect x="121.675" y="19.036" width="12.071" height="12.071" style="fill:#e42313"/><path d="M135.177,17.975v7.356h4.791V13.26h-11.8v4.715Z" style="fill:#ee7203"/><path d="M27.949,8.817a33.442,33.442,0,0,0-6.689.592v4.739a18.158,18.158,0,0,1,5.036-.741c2.567,0,4.715.568,4.715,3.555,0,.568-.1.987-.123,1.481a11.843,11.843,0,0,0-6.072-1.481,7.572,7.572,0,0,0-7.455,7.5c0,5.036,3.653,7.751,8.319,7.751a8.537,8.537,0,0,0,5.5-2.073v1.337h5.036V15.017C36.243,10.545,31.9,8.817,27.949,8.817ZM26.913,27.651c-1.95,0-4.024-1.16-4.024-3.16,0-1.95,2.073-3.16,4.024-3.16s4.023,1.21,4.023,3.16C30.96,26.466,28.86,27.651,26.913,27.651Z" style="fill:#1d327b"/><path d="M53.6,8.891,48.314,19.974,42.567,8.891h-6.2L45.2,25.454l-3.16,6.689h6.517L60.138,8.891Z" style="fill:#1d327b"/><path d="M96.028,8.916c-2.765.272-5.355,1.259-6.936,4.073h-.1v-4H83.785V31.477h5.5V20.962c0-3.8,2.518-7.06,6.714-7.06Z" style="fill:#1d327b"/><path d="M16.373,26.046H5.759V1.757H.279l-.247.049V31.551H16.348l.025-.123Z" style="fill:#1d327b"/><path d="M106.322,26.022a10.563,10.563,0,0,1,1.259-1.728c.518-.592,1.728-1.728,3.653-3.53a37.05,37.05,0,0,0,3.949-4.024,16.267,16.267,0,0,0,2.394-4,10.835,10.835,0,0,0,.741-4A8.131,8.131,0,0,0,115.7,2.618,10.13,10.13,0,0,0,108.494.153a11.261,11.261,0,0,0-6.986,2.123c-1.753,1.432-2.839,3.7-3.234,6.813h5.653A4.9,4.9,0,0,1,105.184,6a4.263,4.263,0,0,1,3.184-1.21,4.347,4.347,0,0,1,3.184,1.16,4.469,4.469,0,0,1,1.16,3.283,7.094,7.094,0,0,1-1.284,3.851,43.436,43.436,0,0,1-5.06,5.233,40.413,40.413,0,0,0-6.788,7.553,14.368,14.368,0,0,0-2,5.7h20.562V26.417H106.125Z" style="fill:#1d327b"/><path d="M75.763,25.257a9.307,9.307,0,0,1-1.728,1.432,5.282,5.282,0,0,1-2.839.741,7.149,7.149,0,0,1-2.394-.395,6.679,6.679,0,0,1-2.024-1.111,5.481,5.481,0,0,1-1.382-1.7,4.2,4.2,0,0,1-.469-1.456H81.539v-2.1a15.671,15.671,0,0,0-.568-4.147,11.012,11.012,0,0,0-1.9-3.752,10.125,10.125,0,0,0-3.357-2.715,10.949,10.949,0,0,0-4.986-1.037,11.687,11.687,0,0,0-4.567.889,10.636,10.636,0,0,0-3.629,2.468,11.227,11.227,0,0,0-2.37,3.678,12.148,12.148,0,0,0-.864,4.591,13.12,13.12,0,0,0,.79,4.567,10.44,10.44,0,0,0,5.875,6.171,12.05,12.05,0,0,0,4.715.889,11.843,11.843,0,0,0,9.206-3.851Zm-10.491-8.2a5.749,5.749,0,0,1,5.36-3.506,6.22,6.22,0,0,1,2.345.42,4.446,4.446,0,0,1,1.6,1.111,4.622,4.622,0,0,1,.963,1.654,7.223,7.223,0,0,1,.322,1.481H64.9a9.309,9.309,0,0,1,.373-1.155Z" style="fill:#1d327b"/></svg>